<svg id="b5a05e34-881a-4aab-b30e-6b4abc59f3d7" data-name="Layer 1" xmlns="http://www.w3.org/2000/svg" width="3.59in" height="2.86in" viewBox="0 0 258.67 205.69"><rect x="0.75" y="0.75" width="257.17" height="47.89" fill="#bbe1d2" stroke="#393d4f" stroke-miterlimit="10" stroke-width="1.5"/><rect x="0.75" y="52.85" width="257.17" height="47.89" fill="#cdbbdb" stroke="#393d4f" stroke-miterlimit="10" stroke-width="1.5"/><rect x="0.75" y="104.96" width="257.17" height="47.89" fill="#b2c5e6" stroke="#393d4f" stroke-miterlimit="10" stroke-width="1.5"/><rect x="0.75" y="157.06" width="257.17" height="47.89" fill="#fbc8b4" stroke="#393d4f" stroke-miterlimit="10" stroke-width="1.5"/><path d="M104.65,29.26l-.36-1.18a.06.06,0,0,0-.06,0h-3s0,0-.06,0l-.35,1.18a.14.14,0,0,1-.15.12H99.19a.12.12,0,0,1-.1-.05s0-.07,0-.12l2.6-8.11a.14.14,0,0,1,.15-.12h1.89a.14.14,0,0,1,.15.12l2.59,8.11a.08.08,0,0,1,0,.06c0,.07,0,.11-.14.11h-1.52A.16.16,0,0,1,104.65,29.26Zm-3-2.54h2.11s.07,0,0-.07l-1.08-3.56s0-.05,0,0,0,0,0,0l-1.06,3.56C101.65,26.7,101.66,26.72,101.7,26.72Z" fill="#393d4f"/><path d="M113.14,26.3a4.63,4.63,0,0,1-.23,1.5A2.5,2.5,0,0,1,112,29a2.38,2.38,0,0,1-1.47.45,1.61,1.61,0,0,1-1.34-.6s0,0,0,0a0,0,0,0,0,0,0v2.56a.15.15,0,0,1,0,.11.18.18,0,0,1-.1,0h-1.4a.14.14,0,0,1-.15-.15V23.35a.18.18,0,0,1,0-.1.15.15,0,0,1,.11,0H109a.14.14,0,0,1,.14.14v.4s0,0,0,0a.06.06,0,0,0,0,0,1.65,1.65,0,0,1,1.39-.66,2.33,2.33,0,0,1,1.43.46,2.48,2.48,0,0,1,.87,1.29A4.19,4.19,0,0,1,113.14,26.3Zm-1.75,0a2.43,2.43,0,0,0-.26-1.2.94.94,0,0,0-.88-.52.89.89,0,0,0-.83.52,2.4,2.4,0,0,0-.25,1.21,2.42,2.42,0,0,0,.26,1.25.89.89,0,0,0,.82.48,1,1,0,0,0,.84-.47A2.32,2.32,0,0,0,111.39,26.28Z" fill="#393d4f"/><path d="M120,26.3a4.64,4.64,0,0,1-.22,1.5,2.63,2.63,0,0,1-.87,1.22,2.38,2.38,0,0,1-1.47.45,1.63,1.63,0,0,1-1.35-.6,0,0,0,0,0-.05,0,.06.06,0,0,0,0,0v2.56a.15.15,0,0,1,0,.11.18.18,0,0,1-.1,0h-1.41a.18.18,0,0,1-.1,0,.15.15,0,0,1,0-.11V23.35a.14.14,0,0,1,.14-.14h1.41a.14.14,0,0,1,.14.14v.4s0,0,0,0,0,0,.05,0a1.66,1.66,0,0,1,1.39-.66,2.36,2.36,0,0,1,1.44.46,2.61,2.61,0,0,1,.87,1.29A4.46,4.46,0,0,1,120,26.3Zm-1.75,0a2.43,2.43,0,0,0-.25-1.2.94.94,0,0,0-.89-.52.91.91,0,0,0-.83.52,2.51,2.51,0,0,0-.25,1.21,2.42,2.42,0,0,0,.27,1.25.87.87,0,0,0,.81.48,1,1,0,0,0,.84-.47A2.32,2.32,0,0,0,118.2,26.28Z" fill="#393d4f"/><path d="M121.09,29.33a.12.12,0,0,1,0-.1V21.12a.14.14,0,0,1,.14-.14h1.4a.15.15,0,0,1,.11,0,.18.18,0,0,1,0,.1v8.11a.15.15,0,0,1,0,.1.16.16,0,0,1-.11.05h-1.4A.14.14,0,0,1,121.09,29.33Z" fill="#393d4f"/><path d="M124.21,22.24a.91.91,0,0,1-.27-.68.94.94,0,0,1,.26-.68.93.93,0,0,1,.69-.26.95.95,0,1,1-.68,1.62Zm-.15,7.09a.15.15,0,0,1,0-.1V23.34a.18.18,0,0,1,0-.1.14.14,0,0,1,.11,0h1.4a.14.14,0,0,1,.14.14v5.89a.12.12,0,0,1,0,.1.14.14,0,0,1-.1.05h-1.4A.14.14,0,0,1,124.06,29.33Z" fill="#393d4f"/><path d="M128.08,29a2.66,2.66,0,0,1-1-1.32,4.57,4.57,0,0,1-.2-1.41,4.5,4.5,0,0,1,.2-1.4,2.5,2.5,0,0,1,1-1.28,3.19,3.19,0,0,1,3.35,0,2.31,2.31,0,0,1,1,1.21,1.68,1.68,0,0,1,.09.44v0a.12.12,0,0,1-.12.13L131,25.6h0a.14.14,0,0,1-.14-.12l0-.2a.93.93,0,0,0-.37-.51,1.13,1.13,0,0,0-.69-.21,1,1,0,0,0-.64.2,1,1,0,0,0-.38.52,3.94,3.94,0,0,0,0,2,1,1,0,0,0,1,.77,1.14,1.14,0,0,0,.66-.2,1,1,0,0,0,.39-.54.17.17,0,0,0,0-.08s0,0,0,0,.07-.14.17-.12l1.38.21a.13.13,0,0,1,.12.14,1.6,1.6,0,0,1-.07.36,2.31,2.31,0,0,1-1,1.26,3.09,3.09,0,0,1-1.67.45A2.9,2.9,0,0,1,128.08,29Z" fill="#393d4f"/><path d="M137.33,23.38a2.24,2.24,0,0,1,.95.74,1.72,1.72,0,0,1,.35,1v4.07a.18.18,0,0,1-.15.15h-1.4a.18.18,0,0,1-.15-.15v-.39s0,0,0-.05,0,0,0,0a1.89,1.89,0,0,1-1.62.66,2.38,2.38,0,0,1-1.51-.45,1.65,1.65,0,0,1-.58-1.35,1.73,1.73,0,0,1,.65-1.43,2.93,2.93,0,0,1,1.85-.51h1.22a.05.05,0,0,0,.06-.06V25.4a.78.78,0,0,0-.24-.61,1,1,0,0,0-.72-.23,1.25,1.25,0,0,0-.61.14.58.58,0,0,0-.32.37c0,.09-.08.13-.16.12L133.43,25c-.1,0-.14-.06-.13-.11a1.54,1.54,0,0,1,.4-.91,2.28,2.28,0,0,1,.94-.64,3.54,3.54,0,0,1,1.3-.23A3.41,3.41,0,0,1,137.33,23.38Zm-.76,4.56a.86.86,0,0,0,.36-.71V26.8a.05.05,0,0,0-.06-.06H136a1.51,1.51,0,0,0-.85.2.67.67,0,0,0-.3.58.62.62,0,0,0,.23.51.94.94,0,0,0,.61.18A1.41,1.41,0,0,0,136.57,27.94Z" fill="#393d4f"/><path d="M143.18,24.52a.13.13,0,0,1-.1,0h-1.15a.05.05,0,0,0-.06.06v2.55a.9.9,0,0,0,.16.59.67.67,0,0,0,.52.19h.4a.14.14,0,0,1,.14.14v1.14a.15.15,0,0,1-.14.16l-.72,0a2.7,2.7,0,0,1-1.49-.33,1.41,1.41,0,0,1-.51-1.24V24.62a.05.05,0,0,0-.06-.06h-.68a.14.14,0,0,1-.14-.14V23.35a.14.14,0,0,1,.14-.14h.68a.05.05,0,0,0,.06-.06V21.72a.14.14,0,0,1,.05-.1.12.12,0,0,1,.1,0h1.34a.12.12,0,0,1,.1,0,.14.14,0,0,1,.05.1v1.43a.05.05,0,0,0,.06.06h1.15a.14.14,0,0,1,.14.14v1.07A.13.13,0,0,1,143.18,24.52Z" fill="#393d4f"/><path d="M144.48,22.24a.88.88,0,0,1-.27-.68.89.89,0,0,1,.94-.94.93.93,0,0,1,.69.26.94.94,0,0,1,.26.68.91.91,0,0,1-.27.68.93.93,0,0,1-.68.27A.9.9,0,0,1,144.48,22.24Zm-.15,7.09a.12.12,0,0,1,0-.1V23.34a.14.14,0,0,1,.14-.14h1.41a.14.14,0,0,1,.14.14v5.89a.12.12,0,0,1,0,.1.14.14,0,0,1-.1.05h-1.41A.14.14,0,0,1,144.33,29.33Z" fill="#393d4f"/><path d="M148.3,28.94a2.65,2.65,0,0,1-1-1.44,4.29,4.29,0,0,1-.16-1.22,4.5,4.5,0,0,1,.16-1.27,2.6,2.6,0,0,1,1-1.39,2.92,2.92,0,0,1,1.73-.51,2.85,2.85,0,0,1,1.68.5,2.63,2.63,0,0,1,1,1.39,4,4,0,0,1,.19,1.26,4.32,4.32,0,0,1-.16,1.21,2.77,2.77,0,0,1-1,1.47,2.84,2.84,0,0,1-1.72.53A2.78,2.78,0,0,1,148.3,28.94Zm2.4-1.16a1.36,1.36,0,0,0,.39-.66,3.22,3.22,0,0,0,.1-.84,3,3,0,0,0-.1-.85,1.3,1.3,0,0,0-.4-.64,1.05,1.05,0,0,0-.68-.23,1,1,0,0,0-.67.23,1.29,1.29,0,0,0-.39.64,2.61,2.61,0,0,0-.1.85,3.6,3.6,0,0,0,.08.84,1.31,1.31,0,0,0,.41.66,1.08,1.08,0,0,0,1.36,0Z" fill="#393d4f"/><path d="M158.75,23.7a2.16,2.16,0,0,1,.59,1.6v3.93a.18.18,0,0,1-.15.15h-1.4a.12.12,0,0,1-.1-.05.12.12,0,0,1,0-.1V25.64a1.08,1.08,0,0,0-.28-.78.89.89,0,0,0-.71-.3.91.91,0,0,0-.71.3,1.12,1.12,0,0,0-.27.78v3.59a.15.15,0,0,1,0,.1.16.16,0,0,1-.11.05h-1.4a.14.14,0,0,1-.1-.05.12.12,0,0,1,0-.1V23.35a.14.14,0,0,1,.14-.14h1.4a.15.15,0,0,1,.11,0,.18.18,0,0,1,0,.1v.42a.06.06,0,0,0,0,.05s0,0,0,0a1.66,1.66,0,0,1,1.46-.7A2.1,2.1,0,0,1,158.75,23.7Z" fill="#393d4f"/><path d="M97.65,71.54a.18.18,0,0,1,.1,0h1.41a.18.18,0,0,1,.1,0,.15.15,0,0,1,0,.11v8.11a.14.14,0,0,1-.14.14H97.8a.19.19,0,0,1-.17-.09l-3.1-5.14,0,0s0,0,0,0l0,5.07a.18.18,0,0,1,0,.1.15.15,0,0,1-.11,0h-1.4a.14.14,0,0,1-.14-.14V71.65a.15.15,0,0,1,0-.11.18.18,0,0,1,.1,0h1.36a.15.15,0,0,1,.16.1l3.1,5.11s0,0,0,0,0,0,0,0v-5A.15.15,0,0,1,97.65,71.54Z" fill="#393d4f"/><path d="M101.65,79.47a2.64,2.64,0,0,1-1-1.44,4.33,4.33,0,0,1-.17-1.22,4.56,4.56,0,0,1,.17-1.28,2.58,2.58,0,0,1,1-1.39,3,3,0,0,1,1.72-.5,2.74,2.74,0,0,1,1.68.5,2.61,2.61,0,0,1,1,1.38,4,4,0,0,1,.19,1.26,4.26,4.26,0,0,1-.17,1.21,2.59,2.59,0,0,1-1,1.47,2.76,2.76,0,0,1-1.72.54A2.87,2.87,0,0,1,101.65,79.47Zm2.4-1.16a1.3,1.3,0,0,0,.4-.66,3.72,3.72,0,0,0,.1-.84,3.5,3.5,0,0,0-.1-.86,1.29,1.29,0,0,0-.41-.63,1.11,1.11,0,0,0-1.35,0,1.26,1.26,0,0,0-.39.63,4.29,4.29,0,0,0,0,1.7,1.3,1.3,0,0,0,.4.66,1,1,0,0,0,.69.24A1,1,0,0,0,104.05,78.31Z" fill="#393d4f"/><path d="M107.11,77a.13.13,0,0,1,0-.1V75.77a.14.14,0,0,1,.14-.14h3.92a.15.15,0,0,1,.11,0,.18.18,0,0,1,0,.1v1.17a.18.18,0,0,1,0,.1.15.15,0,0,1-.11,0h-3.92A.13.13,0,0,1,107.11,77Z" fill="#393d4f"/><path d="M113.7,79.65a2.73,2.73,0,0,1-1.11-1.07,3.08,3.08,0,0,1-.4-1.59V74.42a3,3,0,0,1,.4-1.57,2.73,2.73,0,0,1,1.11-1.07,3.46,3.46,0,0,1,1.65-.37,3.53,3.53,0,0,1,1.66.37,2.85,2.85,0,0,1,1.11,1.07,3.1,3.1,0,0,1,.39,1.57V77a3.18,3.18,0,0,1-.39,1.59A2.81,2.81,0,0,1,117,79.66a3.53,3.53,0,0,1-1.66.37A3.35,3.35,0,0,1,113.7,79.65Zm2.71-1.49a1.49,1.49,0,0,0,.41-1.11V74.41a1.58,1.58,0,0,0-.4-1.13,1.42,1.42,0,0,0-1.07-.42,1.39,1.39,0,0,0-1.06.42,1.58,1.58,0,0,0-.41,1.13v2.64a1.53,1.53,0,0,0,.41,1.11,1.39,1.39,0,0,0,1.06.42A1.4,1.4,0,0,0,116.41,78.16Z" fill="#393d4f"/><path d="M121,79.69a2.44,2.44,0,0,1-1.11-.87,2.31,2.31,0,0,1-.39-1.33v-.26a.15.15,0,0,1,0-.11.18.18,0,0,1,.1,0H121a.15.15,0,0,1,.1,0,.16.16,0,0,1,0,.11v.18a1,1,0,0,0,.44.81,2,2,0,0,0,1.2.33,1.44,1.44,0,0,0,1-.27.85.85,0,0,0,.31-.67.69.69,0,0,0-.19-.49,1.74,1.74,0,0,0-.52-.34q-.33-.15-1-.42a10.42,10.42,0,0,1-1.37-.56A2.73,2.73,0,0,1,120,75a2,2,0,0,1-.38-1.23,2.15,2.15,0,0,1,.37-1.26,2.44,2.44,0,0,1,1-.83,3.83,3.83,0,0,1,1.53-.28,3.78,3.78,0,0,1,1.62.32,2.67,2.67,0,0,1,1.12.91,2.27,2.27,0,0,1,.4,1.35v.18a.14.14,0,0,1-.14.14h-1.38a.12.12,0,0,1-.1,0,.14.14,0,0,1,0-.1v-.1a1.08,1.08,0,0,0-.41-.86,1.72,1.72,0,0,0-1.13-.35,1.47,1.47,0,0,0-.89.24.78.78,0,0,0-.31.66.71.71,0,0,0,.18.5,1.7,1.7,0,0,0,.55.37c.25.11.63.25,1.14.44a12.74,12.74,0,0,1,1.34.55,2.75,2.75,0,0,1,.87.71,1.89,1.89,0,0,1,.39,1.23,2.12,2.12,0,0,1-.83,1.78,3.49,3.49,0,0,1-2.24.66A4.16,4.16,0,0,1,121,79.69Z" fill="#393d4f"/><path d="M129.39,79.86a.13.13,0,0,1,0-.1V71.65a.15.15,0,0,1,0-.11.18.18,0,0,1,.1,0h3a3.71,3.71,0,0,1,1.58.32,2.49,2.49,0,0,1,1.05.89,2.41,2.41,0,0,1,.37,1.34v3.31a2.38,2.38,0,0,1-.37,1.33,2.49,2.49,0,0,1-1.05.89,3.57,3.57,0,0,1-1.58.32h-3A.13.13,0,0,1,129.39,79.86Zm1.71-1.41h1.45a1.16,1.16,0,0,0,.9-.37,1.46,1.46,0,0,0,.35-1V74.32a1.39,1.39,0,0,0-.34-1,1.18,1.18,0,0,0-.92-.38H131.1A.05.05,0,0,0,131,73v5.38A.05.05,0,0,0,131.1,78.45Z" fill="#393d4f"/><path d="M140.41,73.82c.07,0,.09.09.08.18l-.26,1.37c0,.09-.06.12-.16.08a1.33,1.33,0,0,0-.42-.06l-.27,0a1.19,1.19,0,0,0-.73.32,1,1,0,0,0-.3.75v3.28a.14.14,0,0,1-.14.14H136.8a.14.14,0,0,1-.14-.14V73.88a.12.12,0,0,1,0-.1.14.14,0,0,1,.1,0h1.41a.14.14,0,0,1,.1,0,.12.12,0,0,1,0,.1v.45a.06.06,0,0,0,0,0s0,0,0,0a1.53,1.53,0,0,1,1.32-.72A1.2,1.2,0,0,1,140.41,73.82Z" fill="#393d4f"/><path d="M141.49,72.77a.95.95,0,0,1,.68-1.63.91.91,0,0,1,.68.27.89.89,0,0,1,.26.68.93.93,0,0,1-.27.68,1,1,0,0,1-1.35,0Zm-.15,7.09a.18.18,0,0,1,0-.1V73.87a.14.14,0,0,1,.15-.15h1.4a.18.18,0,0,1,.1,0,.15.15,0,0,1,0,.11v5.89a.14.14,0,0,1-.14.14h-1.4A.15.15,0,0,1,141.34,79.86Z" fill="#393d4f"/><path d="M145.87,79.78,144,73.89s0,0,0-.06.05-.11.13-.11h1.55a.16.16,0,0,1,.17.12l1,3.64s0,0,0,0,0,0,0,0l1-3.64a.16.16,0,0,1,.17-.12l1.55,0a.12.12,0,0,1,.1,0,.12.12,0,0,1,0,.12l-1.91,5.87a.16.16,0,0,1-.16.12H146A.16.16,0,0,1,145.87,79.78Z" fill="#393d4f"/><path d="M155.67,77.2a.14.14,0,0,1-.16.15H151.8c-.05,0-.06,0-.05.06a2.18,2.18,0,0,0,.14.48,1.26,1.26,0,0,0,1.27.67,1.46,1.46,0,0,0,1.21-.63.15.15,0,0,1,.11-.07.15.15,0,0,1,.08,0l.87.85a.17.17,0,0,1,.06.11.29.29,0,0,1-.05.1,2.79,2.79,0,0,1-1,.76,3.42,3.42,0,0,1-1.37.27,3.15,3.15,0,0,1-1.75-.47,2.63,2.63,0,0,1-1-1.31,4.06,4.06,0,0,1-.25-1.57,3.41,3.41,0,0,1,.18-1.16,2.62,2.62,0,0,1,1-1.36,3,3,0,0,1,3.57.19,3.13,3.13,0,0,1,.88,1.86A5.53,5.53,0,0,1,155.67,77.2Zm-3.84-1.4a2.38,2.38,0,0,0-.09.38.05.05,0,0,0,.06.06h2.08c.05,0,.06,0,.05-.06l-.06-.33a1.08,1.08,0,0,0-.38-.56,1.11,1.11,0,0,0-.67-.2A1,1,0,0,0,151.83,75.8Z" fill="#393d4f"/><path d="M160.47,73.82c.06,0,.08.09.07.18l-.25,1.37c0,.09-.07.12-.17.08a1.33,1.33,0,0,0-.42-.06l-.27,0a1.22,1.22,0,0,0-.73.32,1,1,0,0,0-.3.75v3.28a.14.14,0,0,1-.14.14h-1.41a.14.14,0,0,1-.14-.14V73.88a.12.12,0,0,1,0-.1.14.14,0,0,1,.1,0h1.41a.14.14,0,0,1,.1,0,.12.12,0,0,1,0,.1v.45a0,0,0,0,0,0,0s0,0,0,0a1.53,1.53,0,0,1,1.32-.72A1.26,1.26,0,0,1,160.47,73.82Z" fill="#393d4f"/><path d="M162.27,79.76a2.15,2.15,0,0,1-.93-.64,1.42,1.42,0,0,1-.33-.92v-.12a.12.12,0,0,1,0-.1.14.14,0,0,1,.1,0h1.33a.18.18,0,0,1,.15.15h0a.51.51,0,0,0,.29.45,1.4,1.4,0,0,0,.74.19,1.2,1.2,0,0,0,.66-.17.45.45,0,0,0,.25-.4.34.34,0,0,0-.22-.32,3.76,3.76,0,0,0-.7-.23,6.88,6.88,0,0,1-.89-.28,3.93,3.93,0,0,1-1.23-.64,1.39,1.39,0,0,1-.45-1.11,1.68,1.68,0,0,1,.69-1.41,2.94,2.94,0,0,1,1.83-.52,3.27,3.27,0,0,1,1.34.25,2,2,0,0,1,.9.69,1.67,1.67,0,0,1,.31,1,.15.15,0,0,1,0,.11.18.18,0,0,1-.1,0h-1.28a.14.14,0,0,1-.15-.15.53.53,0,0,0-.27-.44,1.27,1.27,0,0,0-.71-.18,1.36,1.36,0,0,0-.65.14.44.44,0,0,0-.25.4.38.38,0,0,0,.24.36,4.5,4.5,0,0,0,.83.25l.3.08.36.1a4.08,4.08,0,0,1,1.34.65,1.38,1.38,0,0,1,.49,1.15,1.6,1.6,0,0,1-.7,1.39,3.23,3.23,0,0,1-1.89.5A4,4,0,0,1,162.27,79.76Z" fill="#393d4f"/><path d="M123.33,169.42a.12.12,0,0,1,.1,0h1.4a.12.12,0,0,1,.1,0,.14.14,0,0,1,0,.1v8.11a.16.16,0,0,1,0,.11.15.15,0,0,1-.1,0h-1.4a.15.15,0,0,1-.1,0,.16.16,0,0,1,0-.11v-3.31a.05.05,0,0,0-.06-.06h-2.65a.05.05,0,0,0-.06.06v3.31a.15.15,0,0,1,0,.11.18.18,0,0,1-.1,0H119a.18.18,0,0,1-.1,0,.15.15,0,0,1,0-.11v-8.11a.14.14,0,0,1,.14-.14h1.41a.14.14,0,0,1,.14.14v3.23a.05.05,0,0,0,.06.06h2.65a.05.05,0,0,0,.06-.06v-3.23A.14.14,0,0,1,123.33,169.42Z" fill="#393d4f"/><path d="M131.58,177.66l-.36-1.18s0,0-.06,0h-3s0,0-.06,0l-.34,1.18a.16.16,0,0,1-.16.12h-1.52a.16.16,0,0,1-.11,0s0-.07,0-.13l2.59-8.11a.14.14,0,0,1,.15-.12h1.89a.14.14,0,0,1,.15.12l2.6,8.11s0,0,0,.06,0,.11-.13.11h-1.53A.14.14,0,0,1,131.58,177.66Zm-3-2.53h2.12s.06,0,0-.08l-1.08-3.56s0-.05,0,0,0,0,0,0l-1,3.56S128.58,175.13,128.62,175.13Z" fill="#393d4f"/><path d="M134.49,177.74a.16.16,0,0,1-.05-.11v-8.11a.14.14,0,0,1,.05-.1.12.12,0,0,1,.1,0H136a.12.12,0,0,1,.1,0,.14.14,0,0,1,0,.1v6.75a.05.05,0,0,0,.06.06h3.92a.14.14,0,0,1,.14.14v1.16a.15.15,0,0,1,0,.11.18.18,0,0,1-.1,0h-5.53A.15.15,0,0,1,134.49,177.74Z" fill="#393d4f"/><path d="M82.78,193.19A7.3,7.3,0,0,1,81.65,191a9.7,9.7,0,0,1,0-5.68,7.3,7.3,0,0,1,1.13-2.19.25.25,0,0,1,.18-.08h1.36a.13.13,0,0,1,.11.05.11.11,0,0,1,0,.12,9.6,9.6,0,0,0-1.3,4.94,9.47,9.47,0,0,0,1.3,4.92.17.17,0,0,1,0,.07c0,.07,0,.1-.13.1H83A.25.25,0,0,1,82.78,193.19Z" fill="#393d4f"/><path d="M91.12,187.87a2,2,0,0,1,1.14,2,2.06,2.06,0,0,1-.79,1.75,3.36,3.36,0,0,1-2.08.6H86.28a.18.18,0,0,1-.1,0,.15.15,0,0,1,0-.11v-8.11a.14.14,0,0,1,.14-.14h3c1.9,0,2.85.77,2.85,2.3a1.79,1.79,0,0,1-1,1.72C91.07,187.82,91.07,187.85,91.12,187.87Zm-3.29-2.58v1.87a.05.05,0,0,0,.06.06h1.4a1.36,1.36,0,0,0,.88-.26.9.9,0,0,0,.31-.72.92.92,0,0,0-.31-.74,1.3,1.3,0,0,0-.88-.27h-1.4A.05.05,0,0,0,87.83,185.29Zm2.42,5.14a1,1,0,0,0,.32-.77,1,1,0,0,0-.32-.78,1.28,1.28,0,0,0-.87-.28H87.89a.05.05,0,0,0-.06.06v2a.05.05,0,0,0,.06.06h1.5A1.2,1.2,0,0,0,90.25,190.43Z" fill="#393d4f"/><path d="M97.29,186.18a2.37,2.37,0,0,1,.95.74,1.71,1.71,0,0,1,.34,1.05V192a.15.15,0,0,1,0,.11.18.18,0,0,1-.1,0H97a.18.18,0,0,1-.1,0,.15.15,0,0,1,0-.11v-.39a.06.06,0,0,0,0,0,0,0,0,0,0-.05,0,1.92,1.92,0,0,1-1.62.66,2.36,2.36,0,0,1-1.51-.45,1.61,1.61,0,0,1-.58-1.35,1.73,1.73,0,0,1,.65-1.43,2.93,2.93,0,0,1,1.85-.51h1.22a.05.05,0,0,0,.06-.06v-.26a.8.8,0,0,0-.24-.62,1,1,0,0,0-.72-.22,1.29,1.29,0,0,0-.62.13.64.64,0,0,0-.32.37q0,.13-.15.12l-1.45-.19c-.1,0-.14-.05-.14-.11a1.61,1.61,0,0,1,.41-.91,2.27,2.27,0,0,1,.93-.64,3.58,3.58,0,0,1,1.3-.23A3.46,3.46,0,0,1,97.29,186.18Zm-.76,4.56a.86.86,0,0,0,.36-.71v-.43a.05.05,0,0,0-.06-.06H96a1.57,1.57,0,0,0-.85.2.67.67,0,0,0-.31.58.65.65,0,0,0,.23.51,1,1,0,0,0,.61.18A1.42,1.42,0,0,0,96.53,190.74Z" fill="#393d4f"/><path d="M103.53,186.09a.17.17,0,0,1,.07.18l-.25,1.37c0,.1-.07.13-.17.09a1.33,1.33,0,0,0-.42-.06,1.48,1.48,0,0,0-.27,0,1.16,1.16,0,0,0-.73.32,1,1,0,0,0-.3.75V192a.15.15,0,0,1,0,.11.18.18,0,0,1-.1,0H99.91a.18.18,0,0,1-.1,0,.15.15,0,0,1,0-.11v-5.88a.14.14,0,0,1,.14-.14h1.41a.14.14,0,0,1,.14.14v.46a.05.05,0,0,0,0,0s0,0,0,0a1.53,1.53,0,0,1,1.32-.72A1.26,1.26,0,0,1,103.53,186.09Z" fill="#393d4f"/><path d="M109.72,189.48a.14.14,0,0,1-.16.14h-3.71s-.06,0,0,.06a1.72,1.72,0,0,0,.13.48,1.25,1.25,0,0,0,1.27.67,1.41,1.41,0,0,0,1.21-.62.13.13,0,0,1,.11-.07.1.1,0,0,1,.08.05l.87.85a.15.15,0,0,1,.06.11l-.05.09a2.54,2.54,0,0,1-1,.76,3.42,3.42,0,0,1-1.37.27,3.09,3.09,0,0,1-1.74-.46,2.63,2.63,0,0,1-1-1.31,4.1,4.1,0,0,1-.25-1.57,3.51,3.51,0,0,1,.18-1.17,2.52,2.52,0,0,1,1-1.35,2.94,2.94,0,0,1,3.56.19,3,3,0,0,1,.88,1.86A5.44,5.44,0,0,1,109.72,189.48Zm-3.84-1.41q0,.17-.09.39a.05.05,0,0,0,.06.06h2.08s.06,0,0-.06l-.06-.34a1.06,1.06,0,0,0-.38-.56,1.11,1.11,0,0,0-.67-.19A1,1,0,0,0,105.88,188.07Z" fill="#393d4f"/><path d="M116.44,183.78h1.4a.12.12,0,0,1,.1,0,.14.14,0,0,1,0,.1V192a.16.16,0,0,1,0,.11.15.15,0,0,1-.1,0h-1.4a.15.15,0,0,1-.1,0,.16.16,0,0,1,0-.11v-5.29s0-.05,0-.05,0,0,0,0l-1.27,2a.19.19,0,0,1-.17.1h-.71a.17.17,0,0,1-.16-.1l-1.28-2a.05.05,0,0,0,0,0s0,0,0,.05V192a.15.15,0,0,1,0,.11.18.18,0,0,1-.1,0H111a.18.18,0,0,1-.1,0,.15.15,0,0,1,0-.11v-8.11a.14.14,0,0,1,.14-.14h1.41a.2.2,0,0,1,.17.09l1.8,2.8c0,.05,0,.05.07,0l1.81-2.8A.2.2,0,0,1,116.44,183.78Z" fill="#393d4f"/><path d="M124.85,189.48a.14.14,0,0,1-.16.14H121s-.07,0,0,.06a2.14,2.14,0,0,0,.13.48,1.25,1.25,0,0,0,1.27.67,1.41,1.41,0,0,0,1.21-.62c0-.05.07-.07.11-.07s0,0,.09.05l.86.85a.15.15,0,0,1,.06.11l0,.09a2.54,2.54,0,0,1-1,.76,3.38,3.38,0,0,1-1.37.27,3.11,3.11,0,0,1-1.74-.46,2.63,2.63,0,0,1-1-1.31,4.1,4.1,0,0,1-.25-1.57,3.51,3.51,0,0,1,.18-1.17,2.58,2.58,0,0,1,1-1.35,2.67,2.67,0,0,1,1.64-.51,2.64,2.64,0,0,1,1.92.7,3,3,0,0,1,.88,1.86A4.71,4.71,0,0,1,124.85,189.48ZM121,188.07a3,3,0,0,0-.08.39.05.05,0,0,0,.06.06h2.07s.07,0,0-.06l-.06-.34a1.06,1.06,0,0,0-.38-.56,1.09,1.09,0,0,0-.66-.19A1,1,0,0,0,121,188.07Z" fill="#393d4f"/><path d="M129.25,187.32a.14.14,0,0,1-.1.05H128s-.07,0-.07.06V190a.9.9,0,0,0,.17.59.64.64,0,0,0,.52.19H129a.15.15,0,0,1,.11,0,.18.18,0,0,1,0,.1V192c0,.09,0,.14-.15.16-.33,0-.57,0-.72,0a2.66,2.66,0,0,1-1.48-.33,1.41,1.41,0,0,1-.51-1.24v-3.21a.05.05,0,0,0-.06-.06h-.68a.14.14,0,0,1-.1-.05.12.12,0,0,1,0-.1v-1.07a.14.14,0,0,1,.14-.14h.68a.05.05,0,0,0,.06-.06v-1.43a.18.18,0,0,1,0-.1.15.15,0,0,1,.11,0h1.34a.12.12,0,0,1,.1,0,.13.13,0,0,1,0,.1V186s0,.06.07.06h1.15a.14.14,0,0,1,.14.14v1.07A.12.12,0,0,1,129.25,187.32Z" fill="#393d4f"/><path d="M134.16,186.18a2.34,2.34,0,0,1,1,.74,1.78,1.78,0,0,1,.34,1.05V192a.14.14,0,0,1-.15.15h-1.4a.18.18,0,0,1-.1,0,.15.15,0,0,1,0-.11v-.39a0,0,0,0,0,0,0s0,0-.05,0a1.89,1.89,0,0,1-1.62.66,2.4,2.4,0,0,1-1.51-.45,1.63,1.63,0,0,1-.57-1.35,1.72,1.72,0,0,1,.64-1.43,3,3,0,0,1,1.85-.51h1.23a.05.05,0,0,0,.06-.06v-.26a.8.8,0,0,0-.24-.62,1,1,0,0,0-.72-.22,1.27,1.27,0,0,0-.62.13.61.61,0,0,0-.32.37.14.14,0,0,1-.16.12l-1.45-.19c-.09,0-.14-.05-.13-.11a1.6,1.6,0,0,1,.4-.91,2.38,2.38,0,0,1,.94-.64,3.58,3.58,0,0,1,1.3-.23A3.41,3.41,0,0,1,134.16,186.18Zm-.75,4.56a.86.86,0,0,0,.36-.71v-.43a.05.05,0,0,0-.06-.06h-.87a1.53,1.53,0,0,0-.84.2.69.69,0,0,0-.08,1.09.94.94,0,0,0,.61.18A1.44,1.44,0,0,0,133.41,190.74Z" fill="#393d4f"/><path d="M136.69,192.14a.15.15,0,0,1,0-.11v-8.11a.14.14,0,0,1,.14-.14h1.4a.15.15,0,0,1,.11,0,.18.18,0,0,1,0,.1V192a.14.14,0,0,1-.15.15h-1.4A.18.18,0,0,1,136.69,192.14Z" fill="#393d4f"/><path d="M139.24,192l3.08-8.12a.16.16,0,0,1,.17-.11h1.39c.12,0,.16.05.12.17l-3.08,8.12a.17.17,0,0,1-.17.11h-1.39C139.24,192.18,139.2,192.12,139.24,192Z" fill="#393d4f"/><path d="M149.8,192.07l-1.5-3.32s0-.05-.07-.05h-1.12a.05.05,0,0,0-.06.06V192a.15.15,0,0,1,0,.11.18.18,0,0,1-.1,0H145.5a.18.18,0,0,1-.1,0,.15.15,0,0,1,0-.11v-8.11a.14.14,0,0,1,.14-.14h3.43a2.75,2.75,0,0,1,1.35.31,2.15,2.15,0,0,1,.9.89,2.62,2.62,0,0,1,.32,1.33,2.34,2.34,0,0,1-.41,1.4,2.14,2.14,0,0,1-1.14.82s0,0,0,.08l1.63,3.4a.12.12,0,0,1,0,.07c0,.07,0,.1-.13.1H150A.18.18,0,0,1,149.8,192.07Zm-2.75-6.78v2.05a.05.05,0,0,0,.06.06h1.57a1.13,1.13,0,0,0,.82-.3,1.11,1.11,0,0,0,0-1.56,1.1,1.1,0,0,0-.82-.31h-1.57A.05.05,0,0,0,147.05,185.29Z" fill="#393d4f"/><path d="M158.61,183.82a.13.13,0,0,1,0,.1v1.18a.14.14,0,0,1-.14.14h-2.15a.05.05,0,0,0-.06.06V192a.15.15,0,0,1,0,.11.18.18,0,0,1-.1,0h-1.41a.18.18,0,0,1-.1,0,.15.15,0,0,1,0-.11V185.3a.05.05,0,0,0-.06-.06h-2.09a.14.14,0,0,1-.14-.14v-1.18a.14.14,0,0,1,.14-.14h6A.13.13,0,0,1,158.61,183.82Z" fill="#393d4f"/><path d="M160.74,191.93a2.75,2.75,0,0,1-1.11-1.08,3.08,3.08,0,0,1-.4-1.59v-2.57a3,3,0,0,1,.4-1.57,2.7,2.7,0,0,1,1.11-1.06,3.46,3.46,0,0,1,1.65-.38,3.53,3.53,0,0,1,1.66.38,2.83,2.83,0,0,1,1.11,1.06,3.13,3.13,0,0,1,.39,1.57v2.57a3.24,3.24,0,0,1-.39,1.6,2.79,2.79,0,0,1-1.11,1.07,3.53,3.53,0,0,1-1.66.38A3.46,3.46,0,0,1,160.74,191.93Zm2.71-1.49a1.5,1.5,0,0,0,.41-1.12v-2.64a1.55,1.55,0,0,0-.4-1.12,1.55,1.55,0,0,0-2.14,0,1.6,1.6,0,0,0-.4,1.12v2.64a1.58,1.58,0,0,0,.4,1.12,1.42,1.42,0,0,0,1.07.42A1.4,1.4,0,0,0,163.45,190.44Z" fill="#393d4f"/><path d="M168.05,192a2.53,2.53,0,0,1-1.11-.88,2.28,2.28,0,0,1-.39-1.32v-.27a.14.14,0,0,1,.14-.14h1.37a.12.12,0,0,1,.1,0,.14.14,0,0,1,.05.1v.18a1,1,0,0,0,.44.81,2,2,0,0,0,1.2.33,1.44,1.44,0,0,0,1-.27.83.83,0,0,0,.31-.66.66.66,0,0,0-.19-.49,1.75,1.75,0,0,0-.52-.35c-.22-.1-.57-.24-1.05-.41a10.34,10.34,0,0,1-1.37-.57,2.7,2.7,0,0,1-.93-.78,2,2,0,0,1-.38-1.23,2.15,2.15,0,0,1,.37-1.26,2.36,2.36,0,0,1,1-.83,3.83,3.83,0,0,1,1.53-.29,3.78,3.78,0,0,1,1.62.33,2.58,2.58,0,0,1,1.12.9,2.31,2.31,0,0,1,.4,1.35v.18a.12.12,0,0,1,0,.1.14.14,0,0,1-.1.05h-1.38a.18.18,0,0,1-.15-.15v-.09a1.06,1.06,0,0,0-.41-.86,1.67,1.67,0,0,0-1.13-.36,1.47,1.47,0,0,0-.89.24.78.78,0,0,0-.31.66.76.76,0,0,0,.18.51,1.69,1.69,0,0,0,.55.36c.25.11.63.26,1.14.44s1,.39,1.34.55a2.66,2.66,0,0,1,.87.72,1.85,1.85,0,0,1,.39,1.23,2.13,2.13,0,0,1-.83,1.78,3.49,3.49,0,0,1-2.24.65A4.34,4.34,0,0,1,168.05,192Z" fill="#393d4f"/><path d="M175.89,183.15a7.35,7.35,0,0,1,1.12,2.18,8.91,8.91,0,0,1,.42,2.83A9,9,0,0,1,177,191a7.32,7.32,0,0,1-1.14,2.19.22.22,0,0,1-.18.08h-1.35a.14.14,0,0,1-.12-.05s0-.07,0-.12a9.93,9.93,0,0,0,0-9.86.12.12,0,0,1,0-.07c0-.07,0-.1.13-.1h1.37A.25.25,0,0,1,175.89,183.15Z" fill="#393d4f"/><path d="M39.66,117.38a2.23,2.23,0,0,1,.93.92,2.74,2.74,0,0,1,.33,1.36,2.54,2.54,0,0,1-.35,1.33,2.24,2.24,0,0,1-1,.89,3,3,0,0,1-1.42.32h-1.7a.05.05,0,0,0-.06.06v3.06a.15.15,0,0,1,0,.1.16.16,0,0,1-.11,0h-1.4a.14.14,0,0,1-.1,0,.12.12,0,0,1,0-.1V117.2a.12.12,0,0,1,0-.1.14.14,0,0,1,.1,0h3.38A2.87,2.87,0,0,1,39.66,117.38Zm-.76,3.15a1.11,1.11,0,0,0,.34-.84,1.15,1.15,0,0,0-.34-.85,1.24,1.24,0,0,0-.89-.32H36.49a.05.05,0,0,0-.06.06v2.21a.05.05,0,0,0,.06.06H38A1.24,1.24,0,0,0,38.9,120.53Z" fill="#393d4f"/><path d="M41.89,125.42a.15.15,0,0,1,0-.1v-8.11a.18.18,0,0,1,0-.1.15.15,0,0,1,.11,0h1.4a.14.14,0,0,1,.14.14v8.11a.12.12,0,0,1,0,.1.14.14,0,0,1-.1,0H42A.16.16,0,0,1,41.89,125.42Z" fill="#393d4f"/><path d="M48.63,119.47a2.34,2.34,0,0,1,1,.74,1.77,1.77,0,0,1,.34,1v4.07a.15.15,0,0,1,0,.1.16.16,0,0,1-.11,0h-1.4a.14.14,0,0,1-.1,0,.12.12,0,0,1,0-.1v-.39a0,0,0,0,0,0-.05s0,0-.05,0a1.89,1.89,0,0,1-1.62.66,2.4,2.4,0,0,1-1.51-.45,1.64,1.64,0,0,1-.57-1.35,1.72,1.72,0,0,1,.64-1.43,3,3,0,0,1,1.85-.51h1.23a.05.05,0,0,0,.06-.06v-.27a.78.78,0,0,0-.24-.61,1,1,0,0,0-.72-.23,1.26,1.26,0,0,0-.62.14.58.58,0,0,0-.32.37.14.14,0,0,1-.16.12l-1.45-.19c-.09,0-.14-.06-.13-.11a1.6,1.6,0,0,1,.4-.91,2.28,2.28,0,0,1,.94-.64,3.58,3.58,0,0,1,1.3-.23A3.41,3.41,0,0,1,48.63,119.47ZM47.88,124a.86.86,0,0,0,.36-.71v-.43a.05.05,0,0,0-.06-.06h-.87a1.45,1.45,0,0,0-.84.2.69.69,0,0,0-.08,1.09.94.94,0,0,0,.61.18A1.44,1.44,0,0,0,47.88,124Z" fill="#393d4f"/><path d="M54.48,120.61a.13.13,0,0,1-.1,0H53.23a.05.05,0,0,0-.06.06v2.55a.9.9,0,0,0,.16.59.67.67,0,0,0,.52.19h.4a.14.14,0,0,1,.14.14v1.14a.15.15,0,0,1-.14.16l-.72,0a2.7,2.7,0,0,1-1.49-.33,1.38,1.38,0,0,1-.5-1.24v-3.22a.05.05,0,0,0-.06-.06h-.69a.14.14,0,0,1-.14-.14v-1.07a.14.14,0,0,1,.14-.14h.69a.05.05,0,0,0,.06-.06v-1.43a.14.14,0,0,1,.14-.14H53a.15.15,0,0,1,.11,0,.18.18,0,0,1,0,.1v1.43a.05.05,0,0,0,.06.06h1.15a.14.14,0,0,1,.14.14v1.07A.13.13,0,0,1,54.48,120.61Z" fill="#393d4f"/><path d="M59.16,119.33a.13.13,0,0,1,0,.1v1.14a.14.14,0,0,1-.14.14H57.89a.05.05,0,0,0-.06.06v4.55a.12.12,0,0,1,0,.1.14.14,0,0,1-.1,0h-1.4a.18.18,0,0,1-.15-.15v-4.55a.05.05,0,0,0-.06-.06h-.71a.14.14,0,0,1-.14-.14v-1.14a.14.14,0,0,1,.14-.14h.71a.05.05,0,0,0,.06-.06V119a2.48,2.48,0,0,1,.23-1.16,1.26,1.26,0,0,1,.74-.58,4,4,0,0,1,1.41-.15H59a.14.14,0,0,1,.1,0,.18.18,0,0,1,0,.1v1a.15.15,0,0,1,0,.1.16.16,0,0,1-.1,0h-.4a.79.79,0,0,0-.58.17.83.83,0,0,0-.17.59v.14a.05.05,0,0,0,.06.06h1.17A.13.13,0,0,1,59.16,119.33Z" fill="#393d4f"/><path d="M60.81,125a2.59,2.59,0,0,1-1-1.44,4.28,4.28,0,0,1-.17-1.22,4.49,4.49,0,0,1,.17-1.27,2.53,2.53,0,0,1,1-1.39,2.92,2.92,0,0,1,1.73-.51,2.81,2.81,0,0,1,1.68.5,2.65,2.65,0,0,1,1,1.39,4.37,4.37,0,0,1,.19,1.26,4.31,4.31,0,0,1-.17,1.21,2.71,2.71,0,0,1-1,1.47,3.07,3.07,0,0,1-3.45,0Zm2.4-1.16a1.3,1.3,0,0,0,.4-.66,3.73,3.73,0,0,0,.09-.84,3.4,3.4,0,0,0-.09-.85,1.39,1.39,0,0,0-.41-.64,1.11,1.11,0,0,0-1.35,0,1.29,1.29,0,0,0-.39.64,2.93,2.93,0,0,0-.1.85,3.06,3.06,0,0,0,.09.84,1.3,1.3,0,0,0,.4.66,1,1,0,0,0,.69.24A1,1,0,0,0,63.21,123.87Z" fill="#393d4f"/><path d="M70.25,119.38c.07,0,.09.09.08.18l-.25,1.37c0,.1-.07.12-.17.08a1.33,1.33,0,0,0-.42-.06l-.27,0a1.16,1.16,0,0,0-.73.32,1,1,0,0,0-.3.75v3.27a.12.12,0,0,1,0,.1.14.14,0,0,1-.1,0H66.64a.14.14,0,0,1-.1,0,.12.12,0,0,1,0-.1v-5.88a.14.14,0,0,1,.14-.14h1.41a.14.14,0,0,1,.14.14v.46a.08.08,0,0,0,0,0s0,0,0,0a1.53,1.53,0,0,1,1.32-.72A1.2,1.2,0,0,1,70.25,119.38Z" fill="#393d4f"/><path d="M79.4,119.77a2.22,2.22,0,0,1,.53,1.58v4a.15.15,0,0,1,0,.1.16.16,0,0,1-.11,0h-1.4a.14.14,0,0,1-.1,0,.12.12,0,0,1,0-.1v-3.6a1.13,1.13,0,0,0-.26-.78.84.84,0,0,0-.67-.29.88.88,0,0,0-.68.29,1.08,1.08,0,0,0-.27.77v3.61a.12.12,0,0,1,0,.1.14.14,0,0,1-.1,0H74.83a.18.18,0,0,1-.15-.15v-3.6a1.07,1.07,0,0,0-.26-.77.87.87,0,0,0-.68-.3.9.9,0,0,0-.95.87v3.8a.15.15,0,0,1,0,.1.16.16,0,0,1-.11,0h-1.4a.14.14,0,0,1-.1,0,.12.12,0,0,1,0-.1v-5.88a.14.14,0,0,1,.14-.14h1.4a.15.15,0,0,1,.11,0,.18.18,0,0,1,0,.1v.47s0,0,0,0,0,0,0,0a1.72,1.72,0,0,1,1.52-.73,2.2,2.2,0,0,1,1.05.25,1.71,1.71,0,0,1,.69.72s.06,0,.09,0a1.73,1.73,0,0,1,.71-.73,2.13,2.13,0,0,1,1-.24A1.89,1.89,0,0,1,79.4,119.77Z" fill="#393d4f"/><path d="M39.06,139.82a.12.12,0,0,1-.05-.1v-8.11a.14.14,0,0,1,.05-.1.12.12,0,0,1,.1,0h3a3.74,3.74,0,0,1,1.58.31,2.51,2.51,0,0,1,1,.9,2.46,2.46,0,0,1,.37,1.33v3.31a2.37,2.37,0,0,1-1.42,2.23,3.74,3.74,0,0,1-1.58.32h-3A.12.12,0,0,1,39.06,139.82Zm1.71-1.41h1.45a1.14,1.14,0,0,0,.89-.37,1.46,1.46,0,0,0,.36-1v-2.76a1.42,1.42,0,0,0-.35-1,1.16,1.16,0,0,0-.91-.37H40.77a.05.05,0,0,0-.06.06v5.37A.05.05,0,0,0,40.77,138.41Z" fill="#393d4f"/><path d="M50.08,133.78a.15.15,0,0,1,.07.18l-.25,1.37c0,.1-.07.12-.17.08a1.33,1.33,0,0,0-.42-.06l-.26,0a1.17,1.17,0,0,0-.74.32,1,1,0,0,0-.3.75v3.27a.12.12,0,0,1,0,.1.14.14,0,0,1-.1.05h-1.4a.16.16,0,0,1-.11-.05.15.15,0,0,1,0-.1v-5.88a.18.18,0,0,1,0-.1.15.15,0,0,1,.11,0h1.4a.14.14,0,0,1,.14.14v.46a.05.05,0,0,0,0,0s0,0,0,0a1.53,1.53,0,0,1,1.32-.72A1.26,1.26,0,0,1,50.08,133.78Z" fill="#393d4f"/><path d="M51.15,132.73a.9.9,0,0,1-.27-.67.92.92,0,0,1,.27-.69,1,1,0,0,1,1.36,0,.92.92,0,0,1,.27.69.9.9,0,0,1-.27.67,1,1,0,0,1-1.36,0ZM51,139.82a.12.12,0,0,1,0-.1v-5.89a.14.14,0,0,1,.14-.14h1.4a.15.15,0,0,1,.11,0,.18.18,0,0,1,0,.1v5.89a.15.15,0,0,1,0,.1.16.16,0,0,1-.11.05h-1.4A.14.14,0,0,1,51,139.82Z" fill="#393d4f"/><path d="M55.54,139.75l-1.92-5.9s0,0,0-.06,0-.1.13-.1h1.55a.15.15,0,0,1,.16.12l1,3.63s0,0,0,0,0,0,0,0l1-3.63a.16.16,0,0,1,.17-.12l1.55,0a.14.14,0,0,1,.11,0,.14.14,0,0,1,0,.13l-1.91,5.87a.14.14,0,0,1-.15.12H55.69A.14.14,0,0,1,55.54,139.75Z" fill="#393d4f"/><path d="M65.33,137.17a.14.14,0,0,1-.16.14h-3.7s-.07,0,0,.06a2.14,2.14,0,0,0,.13.48,1.25,1.25,0,0,0,1.27.67A1.44,1.44,0,0,0,64,137.9a.13.13,0,0,1,.11-.07.14.14,0,0,1,.09,0l.86.86s.06.07.06.1a.29.29,0,0,1-.05.1,2.54,2.54,0,0,1-1,.76,3.38,3.38,0,0,1-1.37.27,3,3,0,0,1-1.74-.47,2.57,2.57,0,0,1-1-1.3,4.12,4.12,0,0,1-.25-1.58,3.49,3.49,0,0,1,.18-1.16,2.59,2.59,0,0,1,1-1.36,2.72,2.72,0,0,1,1.63-.5,2.65,2.65,0,0,1,1.93.7,3,3,0,0,1,.88,1.86A4.71,4.71,0,0,1,65.33,137.17Zm-3.84-1.41a2.65,2.65,0,0,0-.08.39.05.05,0,0,0,.06.06h2.07c.05,0,.06,0,.05-.06,0-.24-.06-.35-.06-.34a1,1,0,0,0-.38-.56,1.09,1.09,0,0,0-.66-.19A1,1,0,0,0,61.49,135.76Z" fill="#393d4f"/><path d="M70.13,133.78a.15.15,0,0,1,.07.18L70,135.33c0,.1-.06.12-.17.08a1.33,1.33,0,0,0-.42-.06l-.26,0a1.14,1.14,0,0,0-.73.32,1,1,0,0,0-.3.75v3.27a.18.18,0,0,1-.15.15h-1.4a.18.18,0,0,1-.15-.15v-5.88a.14.14,0,0,1,0-.1.12.12,0,0,1,.1,0h1.4a.12.12,0,0,1,.1,0,.14.14,0,0,1,0,.1v.46s0,0,0,0,0,0,0,0a1.51,1.51,0,0,1,1.32-.72A1.24,1.24,0,0,1,70.13,133.78Z" fill="#393d4f"/><path d="M71.93,139.72a2.13,2.13,0,0,1-.93-.63,1.45,1.45,0,0,1-.33-.93V138a.14.14,0,0,1,.14-.14h1.34a.14.14,0,0,1,.14.14v0a.53.53,0,0,0,.29.44,1.34,1.34,0,0,0,.74.19,1.2,1.2,0,0,0,.66-.16.46.46,0,0,0,.25-.4.35.35,0,0,0-.21-.33,3.93,3.93,0,0,0-.71-.23,6.12,6.12,0,0,1-.89-.27,3.77,3.77,0,0,1-1.22-.65,1.34,1.34,0,0,1-.46-1.1,1.66,1.66,0,0,1,.69-1.41,3,3,0,0,1,1.83-.53,3.53,3.53,0,0,1,1.35.25,2,2,0,0,1,.89.69,1.71,1.71,0,0,1,.32,1,.18.18,0,0,1,0,.1.15.15,0,0,1-.11,0H74.39a.14.14,0,0,1-.14-.14.53.53,0,0,0-.27-.45,1.51,1.51,0,0,0-1.37,0,.45.45,0,0,0-.25.39.37.37,0,0,0,.25.36,4.19,4.19,0,0,0,.82.26l.3.07.36.11a3.72,3.72,0,0,1,1.34.64,1.41,1.41,0,0,1,.5,1.16,1.6,1.6,0,0,1-.71,1.38,3.19,3.19,0,0,1-1.89.5A4,4,0,0,1,71.93,139.72Z" fill="#393d4f"/><rect x="108.54" y="109.74" width="62.55" height="16.89" fill="#85a6d7" stroke="#393d4f" stroke-miterlimit="10" stroke-width="1.5"/><rect x="176.61" y="109.74" width="62.55" height="16.89" fill="#a1dbf7" stroke="#393d4f" stroke-miterlimit="10" stroke-width="1.5"/><rect x="108.54" y="130.86" width="62.55" height="16.89" fill="#f8a68c" stroke="#393d4f" stroke-miterlimit="10" stroke-width="1.5"/><rect x="176.61" y="130.86" width="62.55" height="16.89" fill="#bec1cc" stroke="#393d4f" stroke-miterlimit="10" stroke-width="1.5"/><path d="M129.76,122.36a2.69,2.69,0,0,1-1.1-1,3,3,0,0,1-.39-1.54v-2.69a3,3,0,0,1,.39-1.54,2.63,2.63,0,0,1,1.1-1,3.78,3.78,0,0,1,3.24,0,2.76,2.76,0,0,1,1.1,1,2.51,2.51,0,0,1,.39,1.37v.09a.18.18,0,0,1,0,.1.15.15,0,0,1-.11,0h-1.4a.13.13,0,0,1-.1,0,.14.14,0,0,1-.05-.1v0a1.23,1.23,0,0,0-.38-.93,1.54,1.54,0,0,0-2.06,0,1.42,1.42,0,0,0-.39,1v2.78a1.39,1.39,0,0,0,.42,1,1.48,1.48,0,0,0,1.07.4,1.45,1.45,0,0,0,1-.33,1.15,1.15,0,0,0,.37-.92v-.54a.05.05,0,0,0-.06-.06h-1.34a.14.14,0,0,1-.11,0,.18.18,0,0,1,0-.1v-1.1a.21.21,0,0,1,0-.11.18.18,0,0,1,.11,0h2.92a.14.14,0,0,1,.15.15v1.58a3.06,3.06,0,0,1-.39,1.58,2.5,2.5,0,0,1-1.08,1,3.52,3.52,0,0,1-1.63.35A3.44,3.44,0,0,1,129.76,122.36Z" fill="#393d4f"/><path d="M140.64,114.55a2.29,2.29,0,0,1,.93.92,2.74,2.74,0,0,1,.33,1.36,2.53,2.53,0,0,1-.34,1.33,2.38,2.38,0,0,1-1,.9,3.09,3.09,0,0,1-1.42.31h-1.71s-.05,0-.05.06v3.06a.16.16,0,0,1,0,.11.18.18,0,0,1-.1,0h-1.4a.14.14,0,0,1-.15-.15v-8.12a.18.18,0,0,1,0-.1.15.15,0,0,1,.11,0h3.38A2.83,2.83,0,0,1,140.64,114.55Zm-.75,3.15a1.1,1.1,0,0,0,.33-.83,1.15,1.15,0,0,0-.33-.86,1.26,1.26,0,0,0-.89-.32h-1.53s-.05,0-.05.06V118s0,.06.05.06H139A1.26,1.26,0,0,0,139.89,117.7Z" fill="#393d4f"/><path d="M143,122.6a.15.15,0,0,1,0-.11v-8.11a.14.14,0,0,1,.14-.14h1.41a.13.13,0,0,1,.1,0,.18.18,0,0,1,0,.1v8.11a.21.21,0,0,1,0,.11.18.18,0,0,1-.1,0h-1.41A.18.18,0,0,1,143,122.6Z" fill="#393d4f"/><path d="M147.44,122.39a2.75,2.75,0,0,1-1.11-1.08,3.18,3.18,0,0,1-.39-1.59v-2.57a3.13,3.13,0,0,1,.39-1.57,2.7,2.7,0,0,1,1.11-1.06,3.79,3.79,0,0,1,3.31,0,2.7,2.7,0,0,1,1.11,1.06,3,3,0,0,1,.4,1.57v2.57a3.14,3.14,0,0,1-.4,1.6,2.66,2.66,0,0,1-1.11,1.07,3.79,3.79,0,0,1-3.31,0Zm2.72-1.49a1.54,1.54,0,0,0,.41-1.12v-2.64a1.6,1.6,0,0,0-.4-1.12,1.44,1.44,0,0,0-1.08-.43A1.41,1.41,0,0,0,148,116a1.55,1.55,0,0,0-.4,1.12v2.64a1.54,1.54,0,0,0,.4,1.12,1.4,1.4,0,0,0,1.06.42A1.42,1.42,0,0,0,150.16,120.9Z" fill="#393d4f"/><path d="M127.54,143.21a2.66,2.66,0,0,1-1.09-1,2.9,2.9,0,0,1-.39-1.51v-5.47a.18.18,0,0,1,0-.1.15.15,0,0,1,.11,0h1.4a.14.14,0,0,1,.14.14v5.49a1.38,1.38,0,0,0,.39,1,1.56,1.56,0,0,0,2.06,0,1.38,1.38,0,0,0,.39-1v-5.49a.14.14,0,0,1,.14-.14h1.4a.15.15,0,0,1,.11,0,.18.18,0,0,1,0,.1v5.47a2.9,2.9,0,0,1-.39,1.51,2.66,2.66,0,0,1-1.09,1,3.87,3.87,0,0,1-3.26,0Z" fill="#393d4f"/><path d="M138.63,143.36l-.36-1.18s0-.05-.06-.05h-3s0,0-.05.05l-.35,1.18a.16.16,0,0,1-.16.12h-1.52a.16.16,0,0,1-.11,0,.14.14,0,0,1,0-.13l2.59-8.11a.14.14,0,0,1,.15-.12h1.89a.14.14,0,0,1,.15.12l2.6,8.11s0,0,0,.06-.05.11-.13.11h-1.53A.14.14,0,0,1,138.63,143.36Zm-3-2.53h2.12s.06,0,0-.08l-1.08-3.56s0-.05,0,0,0,0,0,0l-1.05,3.56C135.62,140.8,135.63,140.83,135.67,140.83Z" fill="#393d4f"/><path d="M145.93,143.37l-1.5-3.32a.06.06,0,0,0-.07-.05h-1.11a.05.05,0,0,0-.06.06v3.27a.16.16,0,0,1-.05.11.15.15,0,0,1-.1,0h-1.4a.15.15,0,0,1-.1,0,.15.15,0,0,1,0-.11v-8.11a.13.13,0,0,1,0-.1.12.12,0,0,1,.1,0h3.43a2.8,2.8,0,0,1,1.35.31,2.15,2.15,0,0,1,.9.89,2.73,2.73,0,0,1,.32,1.33,2.41,2.41,0,0,1-.41,1.4,2.14,2.14,0,0,1-1.14.82s-.05,0,0,.08l1.64,3.4,0,.07c0,.07,0,.1-.13.1H146.1A.18.18,0,0,1,145.93,143.37Zm-2.74-6.78v2a.05.05,0,0,0,.06.06h1.57a1.15,1.15,0,0,0,.82-.3,1.11,1.11,0,0,0,0-1.56,1.12,1.12,0,0,0-.82-.31h-1.57A.05.05,0,0,0,143.19,136.59Z" fill="#393d4f"/><path d="M154.75,135.12a.13.13,0,0,1,0,.1v1.18a.14.14,0,0,1-.14.14H152.5a.05.05,0,0,0-.06.06v6.73a.14.14,0,0,1-.15.15h-1.4a.18.18,0,0,1-.1,0,.15.15,0,0,1,0-.11V136.6a.05.05,0,0,0-.06-.06H148.6a.12.12,0,0,1-.1,0,.14.14,0,0,1-.05-.1v-1.18a.14.14,0,0,1,.05-.1.12.12,0,0,1,.1,0h6.05A.13.13,0,0,1,154.75,135.12Z" fill="#393d4f"/><path d="M201.09,122.43a2.53,2.53,0,0,1-1.11-.88,2.28,2.28,0,0,1-.39-1.32V120a.14.14,0,0,1,.14-.14h1.37a.14.14,0,0,1,.14.14v.18a1,1,0,0,0,.45.81,1.94,1.94,0,0,0,1.2.33,1.39,1.39,0,0,0,.94-.27.84.84,0,0,0,.32-.66.66.66,0,0,0-.2-.49,1.63,1.63,0,0,0-.52-.35c-.22-.1-.57-.24-1.05-.41a10.16,10.16,0,0,1-1.36-.57,2.83,2.83,0,0,1-.94-.78,2,2,0,0,1-.37-1.23,2.15,2.15,0,0,1,.37-1.26,2.36,2.36,0,0,1,1-.83,3.82,3.82,0,0,1,1.52-.29,3.86,3.86,0,0,1,1.63.33,2.58,2.58,0,0,1,1.12.9,2.38,2.38,0,0,1,.4,1.35v.18a.15.15,0,0,1,0,.1.16.16,0,0,1-.11,0h-1.38a.14.14,0,0,1-.1,0,.12.12,0,0,1,0-.1v-.09a1.09,1.09,0,0,0-.41-.86,1.69,1.69,0,0,0-1.14-.36,1.44,1.44,0,0,0-.88.24.79.79,0,0,0-.32.66.72.72,0,0,0,.19.51,1.59,1.59,0,0,0,.55.36c.24.11.62.26,1.13.44a14.14,14.14,0,0,1,1.34.55,2.59,2.59,0,0,1,.88.72,1.85,1.85,0,0,1,.39,1.23,2.16,2.16,0,0,1-.83,1.78,3.49,3.49,0,0,1-2.24.65A4.34,4.34,0,0,1,201.09,122.43Z" fill="#393d4f"/><path d="M211.89,114.55a2.29,2.29,0,0,1,.93.92,2.74,2.74,0,0,1,.33,1.36,2.54,2.54,0,0,1-.35,1.33,2.26,2.26,0,0,1-1,.9,3.06,3.06,0,0,1-1.42.31h-1.7a.05.05,0,0,0-.06.06v3.06a.14.14,0,0,1-.15.15h-1.4a.18.18,0,0,1-.1,0,.15.15,0,0,1,0-.11v-8.12a.14.14,0,0,1,.14-.14h3.38A2.87,2.87,0,0,1,211.89,114.55Zm-.76,3.15a1.11,1.11,0,0,0,.34-.83,1.16,1.16,0,0,0-.34-.86,1.24,1.24,0,0,0-.89-.32h-1.52a.05.05,0,0,0-.06.06V118a.05.05,0,0,0,.06.06h1.52A1.24,1.24,0,0,0,211.13,117.7Z" fill="#393d4f"/><path d="M214.23,122.6a.15.15,0,0,1,0-.11v-8.11a.14.14,0,0,1,.14-.14h1.41a.14.14,0,0,1,.14.14v8.11a.15.15,0,0,1,0,.11.18.18,0,0,1-.1,0h-1.41A.18.18,0,0,1,214.23,122.6Z" fill="#393d4f"/><path d="M201.19,143.44a.15.15,0,0,1,0-.11v-8.11a.14.14,0,0,1,.14-.14h1.41a.14.14,0,0,1,.14.14v8.11a.15.15,0,0,1,0,.11.18.18,0,0,1-.1,0h-1.41A.18.18,0,0,1,201.19,143.44Z" fill="#393d4f"/><path d="M205.43,138.49l0,0h2.17a.1.1,0,0,1,.1.1v.77a.1.1,0,0,1-.1.1H204a.1.1,0,0,1-.1-.1v-.73a.17.17,0,0,1,0-.12c.26-.26.53-.54.8-.84l.51-.56c.15-.18.31-.35.46-.51a2.3,2.3,0,0,0,.73-1.2.61.61,0,0,0-.2-.46.77.77,0,0,0-.52-.18.73.73,0,0,0-.52.18.59.59,0,0,0-.2.48v.2a.11.11,0,0,1,0,.07l-.07,0H204l-.07,0a.11.11,0,0,1,0-.07v-.38a1.42,1.42,0,0,1,.27-.76,1.68,1.68,0,0,1,.66-.51,2.34,2.34,0,0,1,.93-.18,2.19,2.19,0,0,1,1,.22,1.55,1.55,0,0,1,.64.57,1.39,1.39,0,0,1,.23.8,1.52,1.52,0,0,1-.17.69,4.26,4.26,0,0,1-.5.76,7.39,7.39,0,0,1-.54.61c-.19.2-.47.5-.85.88l-.12.12S205.42,138.48,205.43,138.49Z" fill="#393d4f"/><path d="M210.09,143.21a2.71,2.71,0,0,1-1.09-1,3,3,0,0,1-.38-1.52v-2.77a3,3,0,0,1,.38-1.53,2.62,2.62,0,0,1,1.09-1,3.61,3.61,0,0,1,1.65-.36,3.75,3.75,0,0,1,1.62.34,2.62,2.62,0,0,1,1.1,1,2.69,2.69,0,0,1,.39,1.45c0,.08,0,.12-.15.14l-1.4.08h0c-.08,0-.12,0-.12-.13a1.35,1.35,0,0,0-.39-1,1.38,1.38,0,0,0-1-.39,1.41,1.41,0,0,0-1,.39,1.35,1.35,0,0,0-.39,1v2.89a1.36,1.36,0,0,0,.39,1,1.45,1.45,0,0,0,1,.38,1.41,1.41,0,0,0,1-.38,1.36,1.36,0,0,0,.39-1c0-.09,0-.13.15-.13l1.4.06a.15.15,0,0,1,.1,0,.14.14,0,0,1,0,.09,2.72,2.72,0,0,1-.39,1.46,2.64,2.64,0,0,1-1.1,1,4,4,0,0,1-3.27,0Z" fill="#393d4f"/></svg>